<svg width="217" height="44" viewBox="0 0 217 44" fill="none" xmlns="http://www.w3.org/2000/svg">
<path d="M36.418 0.500977L37.3213 1.13574C36.9795 2.71452 36.5075 3.95964 35.9053 4.87109C35.3193 5.78255 34.4486 6.50684 33.293 7.04395C32.1536 7.56478 30.8353 7.8252 29.3379 7.8252C28.5404 7.8252 27.5719 7.77637 26.4326 7.67871V32.3613C28.9066 31.6126 30.876 30.6523 32.3408 29.4805C33.8057 28.2923 35.1647 26.5915 36.418 24.3779L37.3213 24.8174C36.6051 26.9984 35.7751 28.748 34.8311 30.0664C33.3174 32.1986 31.3643 33.8913 28.9717 35.1445C26.5791 36.3815 23.8122 37 20.6709 37C17.611 37 14.7464 36.4141 12.0771 35.2422C10.5309 34.5586 9.11491 33.5983 7.8291 32.3613C6.54329 31.1243 5.48535 29.627 4.65527 27.8691C3.84147 26.1113 3.43457 24.1175 3.43457 21.8877C3.43457 19.6416 3.88216 17.4932 4.77734 15.4424C5.67253 13.3916 6.99089 11.4303 8.73242 9.55859C9.83919 8.38672 11.4017 7.09277 13.4199 5.67676L10.3438 5.50586C9.20443 5.44076 7.94303 5.6849 6.55957 6.23828C5.17611 6.77539 4.09375 7.49967 3.3125 8.41113C2.54753 9.32259 1.88021 10.6816 1.31055 12.4883L0.407227 11.9512C0.960612 9.63997 1.67676 7.84147 2.55566 6.55566C3.72754 4.84668 5.27376 3.52832 7.19434 2.60059C9.11491 1.65658 11.304 1.18457 13.7617 1.18457C15.4707 1.18457 18.4899 1.54264 22.8193 2.25879C27.1488 2.97493 30.1273 3.33301 31.7549 3.33301C32.8454 3.33301 33.6755 3.17025 34.2451 2.84473C34.8311 2.50293 35.5553 1.72168 36.418 0.500977ZM16.1543 5.9209L14.8604 5.79883C12.6794 7.67057 11.0762 9.54232 10.0508 11.4141C8.66732 13.9368 7.97559 16.5329 7.97559 19.2021C7.97559 23.7594 9.84733 27.4785 13.5908 30.3594C14.779 29.3665 15.5033 28.5609 15.7637 27.9424C16.0241 27.3239 16.1543 26.0625 16.1543 24.1582V5.9209ZM25.3096 7.45898C23.7633 7.2474 22.3962 7.01953 21.208 6.77539V21.375C21.208 23.084 21.1348 24.1745 20.9883 24.6465C20.8581 25.1022 20.5407 25.623 20.0361 26.209C19.1247 27.2181 17.3018 28.8132 14.5674 30.9941C15.9346 31.6615 17.0413 32.109 17.8877 32.3369C19.3525 32.7275 20.7604 32.9229 22.1113 32.9229C22.8275 32.9229 23.8936 32.8333 25.3096 32.6543V7.45898ZM49.6748 2.01465L49.9189 2.60059C48.7633 3.34928 47.974 4.14681 47.5508 4.99316C47.1276 5.83952 46.916 7.18229 46.916 9.02148V16.9805L54.46 10.9746C56.0713 12.0163 57.1211 13.0254 57.6094 14.002C58.0977 14.9622 58.3418 16.6061 58.3418 18.9336V29.9932C58.3418 32.109 58.1221 33.6553 57.6826 34.6318C56.9827 36.2269 55.6888 37.7243 53.8008 39.124C51.3268 40.9795 48.1774 42.5827 44.3525 43.9336L44.0107 43.0303C47.1195 41.7445 49.2842 40.5726 50.5049 39.5146C51.7256 38.4567 52.5231 37.3337 52.8975 36.1455C53.1742 35.2503 53.3125 32.9229 53.3125 29.1631V18.9336C53.3125 17.7943 53.1986 17.0049 52.9707 16.5654C52.6289 15.9632 52.0023 15.3691 51.0908 14.7832L46.916 18.1768V31.7754L48.6494 33.5088L44.3525 37L40.0068 33.5088L41.9355 31.5801V9.36328C41.9355 7.34505 41.7565 5.96159 41.3984 5.21289C41.0404 4.46419 40.3324 3.78874 39.2744 3.18652L39.543 2.60059C40.4056 2.84473 41.0973 3.12142 41.6182 3.43066C42.139 3.72363 42.8226 4.24447 43.6689 4.99316C44.6618 4.04915 45.6139 3.35742 46.5254 2.91797C47.4368 2.47852 48.4867 2.17741 49.6748 2.01465ZM73.0146 10.9746L79.8994 19.0068L68.9619 26.6729V31.1162L74.626 33.3623L78.459 30.75L78.9961 31.4824L71.0859 37C69.4746 36.1374 68.1481 35.5189 67.1064 35.1445C66.0648 34.7702 64.5837 34.3796 62.6631 33.9727V33.3623C63.2165 33.0368 63.5827 32.638 63.7617 32.166C63.957 31.6777 64.0547 30.6361 64.0547 29.041V15.0762C65.5846 14.5228 66.8542 14.0182 67.8633 13.5625C68.5957 13.2207 70.3128 12.3581 73.0146 10.9746ZM69.3037 13.7822L68.9619 13.9531V25.0127L75.3828 20.5205L69.3037 13.7822ZM94.2305 0.745117H95.3779C95.6383 1.55892 96.0697 2.13672 96.6719 2.47852C97.4531 2.93424 98.7227 3.16211 100.48 3.16211C101.604 3.16211 105.168 3.04818 111.174 2.82031C114.803 2.67383 117.066 2.60059 117.961 2.60059C120.663 2.60059 122.958 3.06445 124.846 3.99219C126.75 4.91992 128.296 6.34408 129.484 8.26465C130.673 10.1852 131.462 12.8301 131.853 16.1992C132.129 18.5592 132.365 23.7594 132.561 31.7998C129.387 33.8018 126.945 35.5352 125.236 37C120.061 35.5514 115.495 34.8271 111.54 34.8271C108.854 34.8271 106.364 35.1527 104.069 35.8037C101.774 36.4385 99.3411 37.4639 96.7695 38.8799L96.0615 37.9521C99.3981 36.2269 102.328 34.4609 104.851 32.6543C107.373 30.8477 109.034 29.2363 109.831 27.8203C110.645 26.388 111.052 24.5732 111.052 22.376C111.052 21.5785 111.035 20.3984 111.003 18.8359C110.97 17.7454 110.954 16.6143 110.954 15.4424C110.954 13.3753 111.068 11.8535 111.296 10.877C111.54 9.90039 112.045 8.77734 112.81 7.50781H112.175C110.189 8.64714 108.863 9.6888 108.195 10.6328C107.544 11.5605 107.219 12.7487 107.219 14.1973L107.414 22.8643C107.414 25.1755 106.722 27.2507 105.339 29.0898C103.955 30.9128 100.635 33.5495 95.3779 37L94.6699 36.0479C97.3229 34.1924 99.0726 32.6706 99.9189 31.4824C100.765 30.2943 101.188 29.0492 101.188 27.7471C101.188 26.624 100.83 25.6719 100.114 24.8906C99.3981 24.0931 98.6087 23.6943 97.7461 23.6943C97.3066 23.6943 96.8997 23.8164 96.5254 24.0605C96.151 24.3047 95.6465 24.8092 95.0117 25.5742L94.2305 24.793C94.7839 23.3932 95.5163 22.3678 96.4277 21.7168C97.3555 21.0658 98.4622 20.7402 99.748 20.7402C100.122 20.7402 100.529 20.7809 100.969 20.8623C101.424 20.9437 101.913 21.0658 102.434 21.2285C102.401 20.2845 102.385 19.4626 102.385 18.7627C102.385 16.2074 102.897 14.1322 103.923 12.5371C104.965 10.9258 106.95 9.24935 109.88 7.50781C107.194 7.78451 104.875 7.92285 102.922 7.92285C100.855 7.92285 99.0807 7.62988 97.5996 7.04395C96.4928 6.58822 95.679 5.86393 95.1582 4.87109C94.6374 3.86198 94.3281 2.48665 94.2305 0.745117ZM114.006 7.50781C113.306 8.69596 112.834 9.72949 112.59 10.6084C112.264 11.8128 112.102 12.9359 112.102 13.9775L112.297 23.5967C112.297 24.8337 111.988 26.0951 111.369 27.3809C110.897 28.3411 110.01 29.513 108.708 30.8965C111.084 30.5059 112.899 30.3187 114.152 30.335L115.544 30.3594V7.50781H114.006ZM116.789 16.8828C117.782 17.5827 118.645 18.0628 119.377 18.3232C120.126 18.5837 120.931 18.7139 121.794 18.7139C122.657 18.7139 123.462 18.5837 124.211 18.3232C124.96 18.0465 125.839 17.5664 126.848 16.8828C126.538 13.2207 125.594 10.7467 124.016 9.46094C122.437 8.15885 120.028 7.50781 116.789 7.50781V16.8828ZM116.789 24.9395C117.896 24.3047 118.84 23.8734 119.621 23.6455C120.402 23.4014 121.257 23.2793 122.185 23.2793C123.08 23.2793 123.91 23.3932 124.675 23.6211C125.44 23.8327 126.359 24.2396 127.434 24.8418L127.019 18.2256C125.977 18.8604 125.074 19.2998 124.309 19.5439C123.56 19.7718 122.738 19.8857 121.843 19.8857C120.98 19.8857 120.126 19.7474 119.279 19.4707C118.433 19.194 117.603 18.779 116.789 18.2256V24.9395ZM116.789 30.4326C118.775 30.5954 120.386 30.7988 121.623 31.043C122.876 31.2708 124.829 31.7591 127.482 32.5078C127.515 30.0501 127.531 28.7806 127.531 28.6992C127.531 28.5039 127.515 27.7227 127.482 26.3555C126.441 25.6393 125.521 25.1429 124.724 24.8662C123.942 24.5895 123.088 24.4512 122.16 24.4512C121.216 24.4512 120.337 24.5895 119.523 24.8662C118.726 25.1429 117.814 25.6393 116.789 26.3555V30.4326ZM154.704 12.0244L155.583 12.3662C154.704 13.7334 154.143 14.7832 153.898 15.5156C153.671 16.2318 153.557 17.2083 153.557 18.4453V28.8457C153.557 30.571 153.687 31.6533 153.947 32.0928C154.224 32.516 154.549 32.7275 154.924 32.7275C155.119 32.7275 155.323 32.6787 155.534 32.5811C155.664 32.4997 156.047 32.2067 156.682 31.7021L157.219 32.5078L151.774 37C150.521 36.0234 149.683 35.1527 149.26 34.3877C148.837 33.6064 148.601 32.5241 148.552 31.1406L141.13 37C138.347 34.7214 136.955 32.4753 136.955 30.2617C136.955 28.7806 137.256 27.389 137.858 26.0869C138.656 24.3779 140.031 22.3841 141.984 20.1055L139.055 13.8555L139.396 13.1719C140.031 13.237 140.503 13.2695 140.812 13.2695C142.733 13.2695 144.426 12.5046 145.891 10.9746C147.079 11.6745 148.373 12.236 149.772 12.6592C151.188 13.0824 152.271 13.2939 153.02 13.2939C153.361 13.2939 153.622 13.237 153.801 13.123C153.98 12.9928 154.281 12.6266 154.704 12.0244ZM148.552 16.6875L140.202 14.124L143.181 20.4229L148.552 22.9375V16.6875ZM148.552 23.9385L142.644 21.1797C141.732 23.1654 141.276 24.9069 141.276 26.4043C141.276 29.041 142.473 31.2139 144.865 32.9229L148.552 29.9443V23.9385ZM178.459 16.8584L185.71 10.9746C187.224 12.0651 188.208 13.0335 188.664 13.8799C189.299 15.0192 189.616 16.3457 189.616 17.8594V32.6543C187.907 33.1914 186.467 33.7855 185.295 34.4365C184.123 35.0876 182.935 35.9421 181.73 37C178.98 35.2585 176.685 34.3877 174.846 34.3877C173.12 34.3877 171.395 35.2585 169.67 37C168.059 35.6654 166.512 34.7051 165.031 34.1191C163.566 33.5169 161.963 33.167 160.222 33.0693V32.4834C160.954 32.1904 161.467 31.7754 161.76 31.2383C162.069 30.6849 162.224 29.6188 162.224 28.04V18.7871C162.224 17.3385 162.175 16.4596 162.077 16.1504C161.996 15.8249 161.735 15.4098 161.296 14.9053C160.596 14.0915 160.124 13.3997 159.88 12.8301C159.636 12.2441 159.514 11.5768 159.514 10.8281C159.514 9.46094 159.937 8.26465 160.783 7.23926C161.63 6.19759 163.119 5.15592 165.251 4.11426L165.69 4.74902C163.933 5.96973 163.054 7.15788 163.054 8.31348C163.054 8.72038 163.151 9.10286 163.347 9.46094C163.444 9.63997 164.038 10.3317 165.129 11.5361C165.861 12.3337 166.423 13.2207 166.813 14.1973C167.041 14.7832 167.196 15.6214 167.277 16.7119L174.382 10.9746C175.684 11.8372 176.644 12.7324 177.263 13.6602C177.897 14.5879 178.296 15.654 178.459 16.8584ZM167.277 17.9326V30.4326L173.43 32.9961V19.6904C173.43 18.2907 173.283 17.306 172.99 16.7363C172.697 16.1667 172.03 15.5482 170.988 14.8809L167.277 17.9326ZM178.459 18.1035V30.3105L184.66 32.9229V19.3486C184.66 18.1442 184.538 17.3223 184.294 16.8828C184.066 16.4271 183.391 15.7679 182.268 14.9053L178.459 18.1035ZM208.464 10.9746L212.468 14.71L214.836 12.415L215.52 13.0742C214.38 14.1159 213.688 14.9053 213.444 15.4424C213.119 16.1585 212.956 17.1432 212.956 18.3965V29.9932C212.956 31.0674 213.127 31.8649 213.469 32.3857C213.68 32.7275 213.916 32.8984 214.177 32.8984C214.405 32.8984 214.942 32.5811 215.788 31.9463L216.374 32.7031L211.125 37C209.774 35.9746 208.903 35.0713 208.513 34.29C208.138 33.4925 207.951 32.2148 207.951 30.457V17.0049L205.29 14.71L201.335 17.8594V31.751L203.093 33.5088L198.771 37L194.426 33.5088L196.33 31.751V19.2754C196.33 17.5013 196.151 16.305 195.793 15.6865C195.549 15.2633 195.272 15.0518 194.963 15.0518C194.637 15.0518 194.149 15.304 193.498 15.8086L192.912 15.125L198.112 10.9746C199.545 11.9837 200.44 12.7812 200.798 13.3672C201.156 13.9531 201.335 14.7669 201.335 15.8086V16.6387L208.464 10.9746Z" fill="black"/>
</svg>
